<?xml version="1.0" standalone="no"?>
<!DOCTYPE svg PUBLIC "-//W3C//DTD SVG 20010904//EN"
 "http://www.w3.org/TR/2001/REC-SVG-20010904/DTD/svg10.dtd">
<svg version="1.0" xmlns="http://www.w3.org/2000/svg"
 width="443.000000pt" height="114.000000pt" viewBox="0 0 443.000000 114.000000"
 preserveAspectRatio="xMidYMid meet">

<defs>
    <style type="text/css">
        .red-text {
            fill: red;
        }
    </style>
</defs>

<g transform="translate(0.000000,114.000000) scale(0.100000,-0.100000)"
fill="#000000" stroke="none">
<path class="red-text" d="M80 1100 l0 -40 105 0 c58 0 105 -3 105 -7 0 -5 -52 -65 -115 -135
-107 -118 -115 -130 -115 -167 l0 -41 180 0 180 0 0 40 0 39 -115 3 -115 3
115 129 c110 122 115 130 115 172 l0 44 -170 0 -170 0 0 -40z"/>
<path class="red-text" d="M571 978 c4 -141 7 -168 24 -197 54 -92 224 -103 302 -19 33 36 43
91 43 241 l0 137 -55 0 -55 0 0 -159 c0 -132 -3 -162 -16 -175 -24 -25 -88
-24 -116 1 -16 14 -18 36 -18 175 l0 158 -56 0 -56 0 3 -162z"/>
<path class="red-text" d="M1270 926 l0 -216 43 0 c71 0 170 20 204 41 93 58 111 224 32 313
-39 45 -91 65 -194 72 l-85 7 0 -217z m165 173 c90 -25 128 -78 129 -179 1
-116 -56 -169 -191 -178 l-73 -5 0 187 0 186 48 0 c26 0 65 -5 87 -11z"/>
<path class="red-text" d="M2050 1075 c0 -31 -3 -35 -25 -35 -16 0 -25 -6 -25 -15 0 -9 9 -15
24 -15 l24 0 4 -136 c4 -159 8 -167 92 -162 68 4 75 28 9 28 -27 0 -54 5 -61
12 -8 8 -12 53 -12 135 l0 123 50 0 c38 0 50 4 50 15 0 11 -12 15 -50 15 l-50
0 0 35 c0 24 -5 35 -15 35 -10 0 -15 -11 -15 -35z"/>
<path class="red-text" d="M1765 1045 c-5 -2 -22 -6 -37 -9 -16 -4 -28 -11 -28 -17 0 -6 21 -8
60 -3 82 9 110 -9 110 -71 l0 -45 -42 0 c-103 0 -158 -35 -158 -100 0 -81 78
-115 164 -71 37 19 38 19 57 0 10 -10 24 -19 29 -19 15 0 12 19 -5 36 -12 12
-15 42 -15 130 0 64 -5 124 -10 134 -14 26 -90 47 -125 35z m105 -223 c0 -47
-1 -50 -40 -67 -76 -34 -130 -16 -130 44 0 51 32 70 113 71 l57 0 0 -48z"/>
<path class="red-text" d="M2345 1045 c-5 -2 -22 -6 -37 -9 -16 -4 -28 -11 -28 -17 0 -6 21 -8
60 -3 82 9 110 -9 110 -71 l0 -45 -42 0 c-102 0 -158 -36 -158 -102 0 -79 79
-112 164 -69 37 19 38 19 57 0 10 -10 24 -19 29 -19 15 0 12 19 -5 36 -12 12
-15 42 -15 130 0 64 -5 124 -10 134 -14 26 -90 47 -125 35z m105 -223 c0 -47
-1 -50 -40 -67 -77 -35 -130 -16 -130 46 0 44 41 69 111 69 l59 0 0 -48z"/>
<path class="red-text" d="M2370 365 c0 -193 2 -225 15 -225 13 0 15 32 15 225 0 193 -2 225
-15 225 -13 0 -15 -32 -15 -225z"/>
<path class="red-text" d="M2530 365 c0 -193 2 -225 15 -225 13 0 15 32 15 225 0 193 -2 225
-15 225 -13 0 -15 -32 -15 -225z"/>
<path class="red-text" d="M2681 576 c-9 -10 -8 -16 4 -26 21 -17 51 6 34 26 -6 8 -15 14 -19
14 -4 0 -13 -6 -19 -14z"/>
<path class="red-text" d="M40 553 c0 -4 34 -55 75 -113 l75 -105 0 -97 0 -98 50 0 50 0 0 99 0
99 71 98 c39 55 76 105 81 112 8 9 -3 12 -50 12 l-60 0 -44 -70 c-24 -38 -45
-69 -48 -69 -3 0 -23 30 -45 67 l-40 67 -58 3 c-31 2 -57 -1 -57 -5z"/>
<path class="red-text" d="M570 350 l0 -210 114 0 c128 0 167 10 212 52 74 69 77 243 6 311 -48
46 -91 57 -217 57 l-115 0 0 -210z m249 95 c18 -18 25 -38 29 -79 8 -100 -30
-146 -123 -146 l-45 0 0 131 0 132 58 -7 c41 -5 64 -13 81 -31z"/>
<path class="red-text" d="M1270 350 c0 -180 2 -210 15 -210 13 0 15 30 15 210 0 180 -2 210
-15 210 -13 0 -15 -30 -15 -210z"/>
<path class="red-text" d="M1818 498 c-2 -25 -8 -34 -25 -36 -13 -2 -23 -7 -23 -12 0 -5 10 -10
23 -12 21 -3 22 -7 24 -123 2 -66 5 -130 8 -142 6 -27 66 -46 114 -37 43 9 34
30 -12 26 -19 -2 -45 2 -56 8 -20 10 -21 20 -21 140 l0 130 50 0 c28 0 50 5
50 10 0 6 -22 10 -50 10 l-50 0 0 35 c0 46 -27 49 -32 3z"/>
<path class="red-text" d="M1507 450 c-31 -17 -37 -17 -37 -5 0 8 -7 15 -15 15 -13 0 -15 -24
-15 -160 0 -134 2 -160 15 -160 12 0 15 24 17 133 l3 132 45 23 c50 25 96 23
118 -5 8 -11 12 -59 12 -150 0 -112 2 -133 15 -133 13 0 15 22 15 140 0 136
-1 142 -25 165 -31 32 -94 34 -148 5z"/>
<path class="red-text" d="M2086 449 c-42 -33 -59 -76 -59 -149 0 -72 19 -120 57 -145 46 -31
173 -28 184 3 3 9 -12 10 -57 6 -38 -4 -71 -2 -89 5 -35 14 -62 59 -62 100 l0
31 105 0 105 0 0 40 c0 51 -22 105 -48 119 -35 19 -106 13 -136 -10z m120 -22
c20 -17 27 -33 28 -63 l1 -39 -87 -3 -88 -3 0 26 c0 54 45 104 92 105 15 0 39
-10 54 -23z"/>
<path class="red-text" d="M2905 460 c-27 -11 -61 -49 -74 -83 -24 -62 -8 -179 28 -211 32 -29
95 -39 137 -21 46 19 44 20 44 -15 0 -74 -45 -106 -135 -97 -42 4 -55 2 -55
-8 0 -17 69 -29 124 -21 27 4 52 16 67 32 23 25 24 31 27 221 3 154 0 198 -10
204 -17 11 -127 10 -153 -1z m104 -16 l31 -6 0 -118 c0 -130 -6 -144 -68 -156
-79 -16 -127 44 -120 152 3 50 9 69 28 90 39 41 69 50 129 38z"/>
<path class="red-text" d="M3238 454 c-15 -8 -35 -28 -44 -45 -35 -68 -26 -197 16 -239 30 -30
93 -45 147 -34 71 14 67 33 -5 27 -92 -8 -132 19 -147 100 l-7 37 111 0 111 0
0 28 c0 45 -20 101 -42 122 -26 24 -99 27 -140 4z m109 -19 c23 -16 49 -88 38
-105 -8 -12 -172 -13 -179 -2 -3 5 -1 25 5 45 18 66 86 97 136 62z"/>
<path class="red-text" d="M3583 449 c-28 -18 -33 -19 -33 -5 0 9 -7 16 -15 16 -13 0 -15 -24
-15 -160 0 -134 2 -160 15 -160 12 0 15 24 17 133 l3 132 48 24 c50 25 83 23
111 -5 13 -12 16 -41 16 -150 0 -115 2 -134 16 -134 13 0 15 18 12 146 -3 139
-4 147 -27 165 -32 26 -106 25 -148 -2z"/>
<path class="red-text" d="M3919 443 c-40 -34 -59 -79 -59 -143 0 -120 69 -179 188 -163 62 8
46 26 -24 27 -77 1 -109 22 -125 78 -32 122 36 224 134 199 31 -7 43 -7 49 2
10 17 -17 25 -79 26 -42 1 -57 -4 -84 -26z"/>
<path class="red-text" d="M4216 449 c-50 -40 -70 -109 -55 -199 14 -92 84 -134 186 -114 61 12
50 30 -15 25 -29 -1 -65 2 -81 8 -34 15 -61 59 -61 100 l0 31 105 0 105 0 0
40 c0 51 -22 105 -48 119 -35 19 -106 13 -136 -10z m119 -22 c18 -15 28 -36
32 -65 l6 -42 -92 0 -91 0 0 31 c0 22 10 41 34 65 40 40 74 44 111 11z"/>
<path class="red-text" d="M2680 300 c0 -153 1 -160 20 -160 19 0 20 7 20 160 0 153 -1 160 -20
160 -19 0 -20 -7 -20 -160z"/>
</g>
</svg>
